<?xml version="1.0"?>
<svg xmlns:rdf="http://www.w3.org/1999/02/22-rdf-syntax-ns#" xmlns="http://www.w3.org/2000/svg" xmlns:cc="http://creativecommons.org/ns#" xmlns:dc="http://purl.org/dc/elements/1.1/" xmlns:svg="http://www.w3.org/2000/svg" id="svg2" viewBox="0 0 200 132" version="1.0">
  <g id="layer1" transform="translate(-192.27 -357.94)">
    <g id="g2429" transform="translate(142.27 270.94)">
      <path id="path2465" d="m168.92 218.25c-0.35-0.5-2.06-0.9-4.85-1.12-2.38-0.19-4.57-0.51-4.88-0.7-0.55-0.34-2.32-0.65-9.66-1.72-6.33-0.92-19.31-6.09-22.66-9.02-1.14-1-1.07-1.02-5.54 1.07-2.15 1.01-4.7 2-5.66 2.21-0.97 0.21-1.9 0.61-2.07 0.89-0.89 1.43-3.48 2.16-4.95 1.39-1.25-0.65-1.71-0.65-3.28 0.01-1.44 0.6-2.49 0.64-4.84 0.21-1.791-0.33-3.361-0.36-3.902-0.07-0.57 0.3-1.502 0.23-2.523-0.2-0.89-0.37-3.326-1.01-5.413-1.41s-4.771-1.26-5.963-1.91c-1.193-0.64-3.145-1.48-4.337-1.87-1.193-0.38-2.9-1.23-3.795-1.89-0.894-0.66-2.846-1.9-4.337-2.76-3.99-2.29-10.579-10.86-11.799-15.34-0.29-1.06-0.666-2.3-0.835-2.75-6.386-16.92 5.919-39.77 25.558-47.47 1.837-0.72 3.763-1.54 4.281-1.83 0.517-0.3 1.524-0.53 2.237-0.53 2.023 0 2.283-0.61 4.615-10.82 0.94-4.11-2.073-4.93-9.962-2.71-6.304 1.78-12.136 2-13.989 0.52-1.625-1.29-1.807-3.12-0.377-3.78 0.447-0.21 1.368-0.67 2.046-1.02 0.909-0.47 1.525-0.48 2.35-0.04 1.548 0.83 1.783 0.37 0.967-1.88-0.613-1.7-0.587-2.02 0.209-2.62 0.839-0.62 0.797-0.96-0.561-4.39-1.761-4.45-3.631-2.98-2.037 1.6 0.774 2.22 0.459 3.17-0.884 2.65-0.87-0.33-2.09-3.21-2.09-4.94 0-2.7-2.653-3.05-7.386-0.97-4.342 1.91-6.709 3.79-6.709 5.32 0 1.42-1.817 3.31-2.676 2.78-2.108-1.3 0.65-5.52 5.056-7.73 2.109-1.06 2.109-1.06-1.626-1.99-5.445-1.36-8.625-4.695-5.278-5.535 1.664-0.417 3.234 0.391 3.026 1.559-0.276 1.556 1.515 2.206 7.08 2.556 8.313 0.52 9.064 0.11 4.741-2.574-3.764-2.337-5.891-7.509-3.973-9.656 3.263-3.651 31.522-3.709 37.976-0.078 3.31 1.862 9.34 7.804 9.34 9.204 0 0.525 0.21 0.955 0.46 0.955 1.64 0 3.5 12.889 2.85 19.769-0.85 9.08-0.7 11.24 0.7 10.07 1.66-1.38 15.67-0.27 22.34 1.76 5.51 1.68 16.22 6.27 17.58 7.53 1.4 1.31 2.63 1.2 3.19-0.28 0.64-1.67 8.9-10.04 12.24-12.4 3.72-2.61 11.18-6.41 12.61-6.41 0.26 0 1.49-0.49 2.74-1.09 1.24-0.6 3.42-1.24 4.84-1.43 1.42-0.18 2.88-0.57 3.24-0.85s0.87-0.37 1.15-0.21c0.27 0.17 2.78 0.43 5.58 0.57 3.61 0.18 5.74 0.57 7.36 1.36 1.25 0.61 2.57 1.11 2.93 1.11 0.82 0 6.45 2.67 7.53 3.58 0.45 0.37 1.53 1.05 2.41 1.51 2.21 1.14 9.4 8.32 10.65 10.62 1.88 3.49 4.03 5.57 4.79 4.65 6.04-7.27 6.45-23.41 0.69-27.46-3.26-2.29-8.78-2.6-8.78-0.5 0 2.71-3.4 4.67-5.11 2.96-2.8-2.8 0.51-8.41 6.18-10.48 3.3-1.2 8.65-0.87 9.56 0.59 0.15 0.25 0.69 0.45 1.21 0.45 2.41 0 9.84 10.43 9.84 13.82 0 0.41 0.25 0.89 0.54 1.07 2.91 1.8-0.26 19.2-4.98 27.41-1.14 1.97-2.06 3.78-2.06 4.03s-0.53 1.01-1.17 1.7c-1.17 1.24-1.17 1.24-0.17 4.91 1.07 3.92 1.21 11.9 0.24 13.71-0.29 0.54-0.53 1.46-0.53 2.04 0 4.44-5.53 15.87-10.22 21.15-5.78 6.5-10.5 10.91-11.66 10.91-0.42 0-1.05 0.36-1.42 0.8-0.72 0.87-2.03 1.6-7.87 4.41-2.09 1.01-4.68 2.31-5.76 2.89-1.09 0.59-3.53 1.32-5.43 1.62-1.89 0.3-4.75 0.94-6.34 1.41s-3.57 0.71-4.42 0.52c-0.89-0.2-1.68-0.09-1.9 0.26-0.24 0.4-2.76 0.57-7.4 0.52-3.87-0.05-7.18 0.06-7.36 0.24-0.52 0.52-0.92 0.4-1.51-0.44zm20.07-23.1c4.67-0.91 9.3-2.3 13.54-4.05 0.6-0.24 1.94-1.23 2.99-2.18 8.58-7.88 8.77-8.09 11.07-12.68 6.1-12.16 5.63-14.82-2.07-11.66-8.19 3.37-30.91 1.9-45.48-2.93-2.59-0.86-2.85-0.66-6.6 5.08-1.56 2.41-4.53 6.37-6.58 8.82-11.18 13.29-11.53 14.05-7.01 15.08 0.89 0.2 2.53 0.94 3.65 1.65 1.12 0.7 2.45 1.28 2.96 1.28s2.34 0.5 4.07 1.12c6.12 2.17 19.67 2.39 29.46 0.47zm-83.81-4.04c3.33-0.34 3.26-0.72-1.36-7.3-0.94-1.34-2.14-3.29-2.67-4.33-0.52-1.04-1.1-2.02-1.285-2.17-0.488-0.4-2.098-3.85-2.523-5.41-0.202-0.75-0.694-2.09-1.093-2.98-0.756-1.7-3.331-10.97-4.032-14.52-0.577-2.91-0.806-2.98-4.171-1.18-13.958 7.46-17.207 25.48-5.859 32.52 3.986 2.47 10.444 5.09 12.571 5.11 0.654 0 1.356 0.28 1.561 0.61 0.247 0.4 1.406 0.48 3.42 0.24 1.681-0.19 4.121-0.46 5.441-0.59zm24.23-16.64c0.9-0.97 2.33-2.74 3.19-3.93s2.92-3.75 4.59-5.69c7.02-8.14 9.23-11.24 8.49-11.86-1.19-0.98-9.71-4.05-13.62-4.9-1.19-0.26-3.88-0.86-5.96-1.34-13.8-3.13-15.23 1.23-6.26 19.12 0.24 0.48 0.76 1.61 1.15 2.5 0.39 0.9 1.32 2.46 2.06 3.48s1.4 2.36 1.47 2.98 0.15 1.19 0.18 1.26c0.29 0.89 3.37-0.17 4.71-1.62zm85.52-23.12c3.24-0.77 3.33-1.21 0.86-4.34-3.51-4.44-6.26-6.75-11.71-9.82-2.06-1.17-10.16-2.02-10.71-1.12-0.2 0.32-1.27 0.83-2.38 1.14-3.28 0.9-11.54 7.89-12.35 10.45-0.47 1.46 0.1 1.71 5.59 2.47 2.62 0.36 7.07 1 9.9 1.42 5.47 0.82 17.01 0.71 20.8-0.2zm-128.69-38.45c4.697-1.65 4.947-3.41 0.699-4.92-1.423-0.5-3.75-1.33-5.172-1.84-3.831-1.37-4.507-0.56-2.564 3.06 0.596 1.11 1.084 2.38 1.084 2.81 0 1.94 2.094 2.25 5.953 0.89z" fill="#fdff00"/>
      <path id="path2416" d="m168.92 218.25c-0.35-0.5-2.06-0.9-4.85-1.12-2.38-0.19-4.57-0.51-4.88-0.7-0.55-0.34-2.32-0.65-9.66-1.72-6.33-0.92-19.31-6.09-22.66-9.02-1.14-1-1.07-1.02-5.54 1.07-2.15 1.01-4.7 2-5.66 2.21-0.97 0.21-1.9 0.61-2.07 0.89-0.89 1.43-3.48 2.16-4.95 1.39-1.25-0.65-1.71-0.65-3.28 0.01-1.44 0.6-2.49 0.64-4.84 0.21-1.791-0.33-3.361-0.36-3.902-0.07-0.57 0.3-1.502 0.23-2.523-0.2-0.89-0.37-3.326-1.01-5.413-1.41s-4.771-1.26-5.963-1.91c-1.193-0.64-3.145-1.48-4.337-1.87-1.193-0.38-2.9-1.23-3.795-1.89-0.894-0.66-2.846-1.9-4.337-2.76-3.99-2.29-10.579-10.86-11.799-15.34-0.29-1.06-0.666-2.3-0.835-2.75-6.386-16.92 5.919-39.77 25.558-47.47 1.837-0.72 3.763-1.54 4.281-1.83 0.517-0.3 1.524-0.53 2.237-0.53 2.023 0 2.283-0.61 4.615-10.82 0.94-4.11-2.073-4.93-9.962-2.71-6.304 1.78-12.136 2-13.989 0.52-1.625-1.29-1.807-3.12-0.377-3.78 0.447-0.21 1.368-0.67 2.046-1.02 0.909-0.47 1.525-0.48 2.35-0.04 1.553 0.83 1.782 0.37 0.955-1.92-0.839-2.31 0.272-3.78 1.561-2.06 1.068 1.43 0.795 0.51-0.617-2.08-0.712-1.3-1.607-3.34-1.989-4.53-0.693-2.17-0.693-2.17-1.382-0.5-0.562 1.37-0.553 2.06 0.05 3.8 0.774 2.22 0.459 3.17-0.884 2.65-0.87-0.33-2.09-3.21-2.09-4.94 0-2.7-2.653-3.05-7.386-0.97-4.342 1.91-6.709 3.79-6.709 5.32 0 1.42-1.817 3.31-2.676 2.78-2.108-1.3 0.65-5.52 5.056-7.73 2.109-1.06 2.109-1.06-1.626-1.99-5.445-1.36-8.625-4.695-5.278-5.535 1.664-0.417 3.234 0.391 3.026 1.559-0.276 1.556 1.515 2.206 7.08 2.556 8.313 0.52 9.064 0.11 4.741-2.574-3.764-2.337-5.891-7.509-3.973-9.656 3.263-3.651 31.522-3.709 37.976-0.078 3.31 1.862 9.34 7.804 9.34 9.204 0 0.525 0.21 0.955 0.46 0.955 1.64 0 3.5 12.889 2.85 19.769-0.85 9.08-0.7 11.24 0.7 10.07 1.66-1.38 15.67-0.27 22.34 1.76 5.51 1.68 16.22 6.27 17.58 7.53 1.4 1.31 2.63 1.2 3.19-0.28 0.64-1.67 8.9-10.04 12.24-12.4 3.72-2.61 11.18-6.41 12.61-6.41 0.26 0 1.49-0.49 2.74-1.09 1.24-0.6 3.42-1.24 4.84-1.43 1.42-0.18 2.88-0.57 3.24-0.85s0.87-0.37 1.15-0.21c0.27 0.17 2.78 0.43 5.58 0.57 3.61 0.18 5.74 0.57 7.36 1.36 1.25 0.61 2.57 1.11 2.93 1.11 0.82 0 6.45 2.67 7.53 3.58 0.45 0.37 1.53 1.05 2.41 1.51 2.21 1.14 9.4 8.32 10.65 10.62 1.88 3.49 4.03 5.57 4.79 4.65 6.04-7.27 6.45-23.41 0.69-27.46-3.26-2.29-8.78-2.6-8.78-0.5 0 2.71-3.4 4.67-5.11 2.96-2.8-2.8 0.51-8.41 6.18-10.48 3.3-1.2 8.65-0.87 9.56 0.59 0.15 0.25 0.69 0.45 1.21 0.45 2.41 0 9.84 10.43 9.84 13.82 0 0.41 0.25 0.89 0.54 1.07 2.91 1.8-0.26 19.2-4.98 27.41-1.14 1.97-2.06 3.78-2.06 4.03s-0.53 1.01-1.17 1.7c-1.17 1.24-1.17 1.24-0.17 4.91 1.07 3.92 1.21 11.9 0.24 13.71-0.29 0.54-0.53 1.46-0.53 2.04 0 4.44-5.53 15.87-10.22 21.15-5.78 6.5-10.5 10.91-11.66 10.91-0.42 0-1.05 0.36-1.42 0.8-0.72 0.87-2.03 1.6-7.87 4.41-2.09 1.01-4.68 2.31-5.76 2.89-1.09 0.59-3.53 1.32-5.43 1.62-1.89 0.3-4.75 0.94-6.34 1.41s-3.57 0.71-4.42 0.52c-0.89-0.2-1.68-0.09-1.9 0.26-0.24 0.4-2.76 0.57-7.4 0.52-3.87-0.05-7.18 0.06-7.36 0.24-0.52 0.52-0.92 0.4-1.51-0.44zm2.35-3.47c0.54-0.54 1.15-1.41 1.35-1.93 0.32-0.83 0.52-0.76 1.65 0.55 1.28 1.5 1.28 1.5 1.92 0.31 0.79-1.48 1.47-1.52 1.84-0.1 0.31 1.2 2.27 1.49 2.77 0.4 0.26-0.54 0.38-0.54 0.64 0 0.48 1.03 1.74 0.81 2.39-0.4 0.67-1.25 2.71-1.48 2.71-0.31 0 1.09 1.06 1.63 1.78 0.91 0.45-0.44 0.36-0.6-0.31-0.6-0.51 0-0.93-0.25-0.93-0.55 0-0.29 0.28-0.54 0.62-0.54s0.93-0.42 1.32-0.95c0.66-0.9 0.77-0.9 2.31 0 1.98 1.17 2.8 1.21 2.8 0.14 0-0.45-0.36-0.81-0.81-0.81-0.51 0-0.81-0.52-0.81-1.4 0-1.13 0.22-1.35 1.21-1.21 0.81 0.11 1.22 0.54 1.22 1.25 0 1.4 3.01 1.83 4.05 0.57 0.38-0.46 0.53-0.84 0.34-0.84-0.2 0-0.1-0.49 0.22-1.08 0.32-0.6 0.94-1.09 1.38-1.09 0.43 0 0.79 0.49 0.79 1.09 0 1.57 0.79 1.34 3.03-0.9 1.65-1.64 2.15-1.88 2.95-1.39 1.03 0.65 2.69-0.6 2.69-2.01 0-0.48 0.45-0.58 1.42-0.34 1.67 0.42 3.46-0.9 3.46-2.55 0-0.83 0.27-0.99 1.2-0.75 1.44 0.38 3.14-0.98 3.14-2.5 0-0.8 0.27-0.99 1.09-0.78 1.22 0.32 2.16-0.95 2.16-2.89 0-0.98 0.24-1.14 1.4-0.92 1.69 0.33 2.26-0.73 1.4-2.61-0.64-1.39-0.61-1.41 1.81-1.54 0.73-0.03 1.29-0.67 1.73-1.95 0.36-1.04 0.66-1.68 0.68-1.42 0.06 0.93 1.66-0.9 1.66-1.89 0-0.64 0.38-1.02 1.02-1.02 0.61 0 1.14-0.49 1.32-1.22 0.69-2.83 2.47-7.07 3.12-7.47 0.52-0.32 0.55-0.62 0.1-1.16-0.44-0.53-0.4-0.99 0.16-1.75 0.57-0.77 0.61-1.23 0.16-1.76-0.42-0.52-0.43-0.93-0.02-1.42 0.69-0.83 0.52-9.04-0.21-10.17-0.28-0.43-0.53-2.12-0.56-3.76-0.05-2.68-1.37-6.86-2.92-9.21-0.29-0.45-0.86-1.54-1.27-2.44-0.4-0.89-1.14-1.96-1.63-2.37-0.5-0.4-0.9-1.04-0.9-1.42 0-1.38-11.12-11.88-14.47-13.65-11.62-6.17-34.32-7.22-34.32-1.6 0 1.33-1.39 2.11-2.14 1.2-0.89-1.07-3.16-0.04-3.39 1.53-0.12 0.88-0.55 1.15-1.87 1.16-1.21 0.02-2.18 0.53-3.33 1.77-0.9 0.95-2.01 1.74-2.48 1.74-1.27 0-9.02 8.04-9.02 9.36 0 1.72 5.23 4.24 5.78 2.8 0.2-0.51 0.96-0.67 2.41-0.53 2.32 0.23 2.6-0.04 1.17-1.13-0.88-0.66-0.86-0.72 0.27-0.74 0.85-0.01 1.22-0.34 1.22-1.1 0-0.61 0.36-1.08 0.82-1.08s1.06-0.61 1.35-1.35c0.28-0.75 0.73-1.36 1.01-1.36 0.27 0 0.64-0.59 0.82-1.31 0.55-2.16 9.55-6.57 9.55-4.67 0 0.33-0.43 0.74-0.95 0.91-3.15 1.01-8.81 5.39-8.81 6.81 0 0.63 2.98-1.07 4.94-2.82 1.39-1.24 4.59-2.64 9.86-4.31 1.54-0.49 2.25-0.5 2.8-0.04 0.53 0.44 0.84 0.45 1.11 0.01 0.23-0.38 1.27-0.47 2.89-0.25 3.22 0.44 3.89 0.44 5.32-0.01 0.89-0.29 1.25-0.11 1.53 0.76 0.27 0.86 0.66 1.06 1.6 0.82 0.87-0.22 1.35-0.04 1.59 0.59 0.24 0.62 0.01 0.99-0.74 1.19-1.33 0.35-1.4 1-0.15 1.48 0.58 0.22 1.19 0.01 1.61-0.56 0.84-1.15 2.53-0.06 2.08 1.35-0.17 0.56 0.52 1.55 1.94 2.76 4.38 3.75 7.36 7 8.65 9.46 1.29 2.45 1.36 2.49 3.41 2.15 1.83-0.3 2.05-0.23 1.87 0.66-0.14 0.72-0.6 0.96-1.63 0.85-1.89-0.19-2.28 0.57-1.07 2.06 0.87 1.07 1.11 1.13 2.15 0.48 1.83-1.14 2.76 0.16 0.96 1.34-1.49 0.97-1.9 3.4-0.76 4.54 0.43 0.43 0.46 0.84 0.07 1.32-0.3 0.39-0.69 2.53-0.86 4.77-0.45 5.82-5.82 16.44-7.48 14.79-0.43-0.44-0.02-1.75 1.55-4.85 5.91-11.74 5.38-14.43-2.25-11.3-8.19 3.37-30.91 1.9-45.48-2.93-2.59-0.86-2.85-0.66-6.6 5.08-1.56 2.41-4.53 6.37-6.58 8.82-11.18 13.29-11.53 14.05-7.01 15.08 0.89 0.2 2.53 0.94 3.65 1.65 1.12 0.7 2.45 1.28 2.96 1.28s2.31 0.5 4.01 1.1c3.38 1.2 14.44 2.15 20.57 1.78 8.21-0.51 23.39-4.61 24.66-6.67 0.22-0.36 1.01-0.47 1.92-0.26 2.91 0.63 6.01-1.31 8.58-5.38 2.4-3.79 3.65-4.78 4.46-3.51 0.78 1.2 0.32 2.36-1 2.55-0.67 0.1-1.22 0.54-1.22 0.99s-0.36 1.18-0.81 1.63c-0.98 0.98-1.08 2.05-0.14 1.45 0.38-0.23 1.11-0.35 1.63-0.27 0.57 0.1 0.95-0.18 0.95-0.69 0-0.6 0.54-0.84 1.9-0.84 1.04 0 1.89 0.16 1.89 0.36 0 0.68-1.79 2.35-2.52 2.35-0.4 0-0.73 0.25-0.73 0.57 0 0.31-1.09 1.05-2.42 1.64s-2.55 1.28-2.71 1.55c-1.79 2.89-15.55 5.97-31.03 6.94-7.53 0.47-8.32 0.69-7.24 1.99 0.84 1.01 0.3 1.93-1.13 1.93-0.92 0-1.04-0.24-0.75-1.57 0.41-1.87 0.25-2-3.16-2.51-2.63-0.39-2.63-0.39-1.75 0.96 0.79 1.19 0.79 1.42 0.06 2.02-1.33 1.11-2.48 0.3-2.12-1.51 0.36-1.8-0.02-1.99-5.48-2.81-1.79-0.26-3.79-0.64-4.43-0.83-0.95-0.28-1.21-0.1-1.36 0.92-0.11 0.83-0.6 1.33-1.39 1.44-1.07 0.15-1.18-0.01-0.9-1.38 0.36-1.8-0.22-2.42-3.13-3.35-1.09-0.35-2.28-1-2.64-1.43s-1.18-0.78-1.83-0.78-1.47-0.29-1.83-0.65c-0.5-0.5-0.98-0.34-2.14 0.7-0.82 0.75-2.11 1.66-2.85 2.04-5.8 2.91-6.8 8.15-1.28 6.67 2.95-0.79 3.34-0.57 2.36 1.27-0.88 1.64 0.03 3.16 1.2 1.99 1.12-1.12 3.27-0.83 2.88 0.39-0.4 1.26 0.53 1.92 2.51 1.77 0.99-0.07 1.75 0.28 2.3 1.07 0.72 1.03 0.94 1.08 1.75 0.41 0.62-0.52 0.99-0.57 1.13-0.17 0.68 2.05 1.76 2.69 2.62 1.57 0.82-1.06 1.84-0.51 1.87 1.01 0 0.26 0.45 0.35 1 0.21 0.54-0.14 1.41 0.05 1.92 0.42 0.51 0.38 1.41 0.56 1.99 0.41 0.58-0.16 1.06-0.02 1.06 0.29 0 0.88 2.24 1.4 2.72 0.63 0.32-0.52 0.7-0.48 1.66 0.19 0.89 0.63 1.43 0.71 1.93 0.3 0.92-0.76 1.82-0.14 1.82 1.24 0 0.85-0.26 1.05-1.08 0.83-1.07-0.28-1.44 0.17-0.73 0.88 0.59 0.59 1.21 0.42 2.26-0.63zm14.28-5.06c0.24-1.68 2.89-1.84 2.89-0.18 0 0.79-0.42 1.13-1.53 1.26-1.34 0.15-1.51 0.01-1.36-1.08zm-7.68-0.69c0-0.43 0.19-0.9 0.43-1.04 0.69-0.43 1.91 0.56 1.5 1.22-0.53 0.87-1.93 0.74-1.93-0.18zm-4.16-0.62c-0.18-0.46-0.06-1.1 0.26-1.41 0.79-0.8 2.32-0.12 1.95 0.86-0.45 1.17-1.84 1.52-2.21 0.55zm-4.93-1.4c0.29-0.88 1.91-1.84 2.35-1.4 0.2 0.2 0.22 0.74 0.05 1.2-0.38 0.97-2.73 1.16-2.4 0.2zm-3.8-1.08c0.28-0.84 1.98-0.98 2.18-0.18 0.08 0.3-0.44 0.62-1.14 0.72-0.88 0.13-1.21-0.04-1.04-0.54zm-4.9-1.4c0.23-1.18 2.61-1.64 2.61-0.5 0 0.75-1.08 1.45-2.25 1.45-0.3 0-0.46-0.43-0.36-0.95zm-5.15-0.88c-0.46-1.18 0.7-2.01 1.91-1.36 0.83 0.44 0.91 0.71 0.4 1.33-0.82 0.98-1.94 1-2.31 0.03zm26.94-1.67c-0.17-0.43-0.14-1.05 0.06-1.38 0.53-0.85 1.92 0.41 1.54 1.4-0.38 1-1.22 0.99-1.6-0.02zm-32.19-0.58c0-0.95 1.3-1.6 2.15-1.08 0.37 0.23 0.3 0.62-0.21 1.13-1.02 1.02-1.94 0.99-1.94-0.05zm10.3-0.78c-0.63-0.41-0.68-0.74-0.21-1.49 0.93-1.49 2.65-1.24 2.65 0.38 0 1.46-1.12 1.97-2.44 1.11zm27.38-0.02c0.18-0.29 0.68-0.54 1.11-0.54s0.78 0.25 0.78 0.54c0 0.3-0.5 0.55-1.11 0.55-0.62 0-0.97-0.25-0.78-0.55zm5.99 0.05c-0.18-0.28-0.09-0.65 0.19-0.83 0.29-0.17 0.66-0.09 0.83 0.2 0.18 0.28 0.09 0.65-0.19 0.83-0.28 0.17-0.66 0.08-0.83-0.2zm-49.38-0.61c-0.43-0.7 0.77-2.24 1.43-1.83 0.27 0.16 0.48 0.77 0.48 1.34 0 1.11-1.31 1.45-1.91 0.49zm-5.12-2.11c-0.98-0.63-0.73-0.92 1.26-1.42 1.32-0.33 1.52-0.24 1.35 0.63-0.23 1.16-1.44 1.53-2.61 0.79zm9.68-1.27c-0.09-0.88 0.12-2.23 0.37-2.5 0.45-0.46 1.78 1.15 1.52 1.84-0.38 0.98-1.81 1.49-1.89 0.66zm-3.96-2.48c-0.23-0.38-0.27-0.84-0.1-1.01 0.49-0.49 1.02 0.22 0.76 1.01-0.19 0.55-0.31 0.55-0.66 0zm78.43-10.02c-1.73-0.86 0.84-3.06 3.57-3.06 0.35 0 0.63-0.24 0.63-0.54s-0.85-0.54-1.9-0.54c-1.04 0-1.89-0.24-1.89-0.54s0.47-0.54 1.05-0.54 1.2-0.25 1.38-0.54c0.19-0.3 0.91-0.55 1.61-0.55 0.69 0 1.41-0.38 1.59-0.85 0.48-1.25 0.44-1.31-0.8-1.31-0.78 0-1.06-0.29-0.93-0.95 0.12-0.62 0.7-0.96 1.64-0.97 1.67-0.03 2.3-0.5 2.31-1.73 0-0.48 0.32-0.97 0.71-1.1 0.93-0.31 0.41 1.93-1.31 5.66-0.71 1.55-1.29 2.97-1.29 3.16 0 0.72-3.95 5.13-4.54 5.07-0.34-0.04-1.16-0.34-1.83-0.67zm-2.74-4.79c-0.82-0.82-0.83-1.66-0.01-2.48 1.03-1.03 2.75 0.78 2.03 2.12-0.63 1.18-1.12 1.26-2.02 0.36zm2.27-4.47c-0.17-0.43-0.15-1.04 0.05-1.35 0.63-1.02 1.37-0.6 1.37 0.78 0 1.47-0.93 1.84-1.42 0.57zm3.59-2.19c0-0.45 0.24-0.81 0.54-0.81s0.54 0.36 0.54 0.81c0 0.44-0.24 0.81-0.54 0.81s-0.54-0.37-0.54-0.81zm2.8-1.72c0.27-1.36 1.53-1.54 1.53-0.22 0 0.66-0.35 1.13-0.85 1.13-0.51 0-0.78-0.37-0.68-0.91zm2.35-1.8c-0.22-0.35-0.15-0.88 0.14-1.18 0.37-0.36 0.68-0.33 0.94 0.09 0.22 0.35 0.15 0.88-0.15 1.18-0.36 0.36-0.67 0.33-0.93-0.09zm-2.15-1.59c-0.4-0.65 0.62-1.29 1.34-0.85 0.61 0.38 0.21 1.35-0.55 1.35-0.26 0-0.62-0.22-0.79-0.5zm-4.63-0.67c0-0.35 0.4-1.08 0.9-1.63 0.83-0.92 0.83-1.06-0.09-2.08-1.08-1.18-0.8-1.94 0.52-1.43 0.97 0.37 1.13 3.13 0.28 4.72-0.62 1.16-1.61 1.41-1.61 0.42zm7.24-3.14c0.09-3.06 1.02-3.41 1.3-0.48 0.12 1.2-0.1 2.15-0.6 2.56-0.67 0.56-0.78 0.26-0.7-2.08zm-2.59-0.49c-0.23-0.38-0.28-0.83-0.1-1.01 0.49-0.49 1.02 0.23 0.76 1.01-0.19 0.55-0.32 0.55-0.66 0zm-0.31-4.43c0-0.25 0.42-0.43 0.94-0.41 0.53 0.03 1.29-0.05 1.7-0.17 0.41-0.11 0.85 0.07 0.97 0.42 0.15 0.39-0.47 0.62-1.69 0.62-1.06 0-1.92-0.21-1.92-0.46zm-4.34-0.77c0-0.48 0.32-0.67 0.81-0.49 0.45 0.18 0.67 0.53 0.51 0.8-0.47 0.76-1.32 0.57-1.32-0.31zm6.5-2.73c0-0.44 0.37-0.81 0.82-0.81s0.81 0.37 0.81 0.81c0 0.45-0.36 0.82-0.81 0.82s-0.82-0.37-0.82-0.82zm-2.98-0.27c-0.39-0.64 0.12-1.62 0.85-1.62 0.28 0 0.51 0.49 0.51 1.08 0 1.14-0.79 1.46-1.36 0.54zm2.71-2.71c-0.44-0.71 0.21-1.72 0.85-1.33 0.66 0.41 0.66 1.88 0 1.88-0.28 0-0.66-0.25-0.85-0.55zm-4.06-2.16c0-0.3 0.38-0.54 0.84-0.54 0.47 0 0.7 0.24 0.51 0.54-0.18 0.3-0.56 0.54-0.84 0.54s-0.51-0.24-0.51-0.54zm-5.97-3.25c0-0.6 0.37-1.09 0.82-1.09s0.81 0.49 0.81 1.09-0.36 1.08-0.81 1.08-0.82-0.48-0.82-1.08zm3.8-0.77c0-0.47 0.39-0.86 0.86-0.86 0.96 0 0.79 1.17-0.22 1.5-0.35 0.12-0.64-0.17-0.64-0.64zm-6.26-1.99c-0.56-0.9 0.69-1.94 1.44-1.19 0.63 0.63 0.24 1.78-0.6 1.78-0.26 0-0.64-0.26-0.84-0.59zm4.91-1.02c-0.26-0.43-0.09-0.89 0.46-1.2 0.49-0.27 0.89-0.85 0.89-1.28s0.49-0.78 1.08-0.78c1.34 0 1.45 1.52 0.14 2.01-0.52 0.2-1.22 0.71-1.54 1.15-0.48 0.63-0.69 0.65-1.03 0.1zm-7.62-1.69c-0.48-0.76 0.57-1.81 1.33-1.33 0.86 0.53 0.72 1.92-0.19 1.92-0.43 0-0.94-0.26-1.14-0.59zm5.17-1.57c0-0.7 0.28-1.09 0.68-0.95 0.38 0.12 0.68 0.55 0.68 0.95 0 0.39-0.3 0.82-0.68 0.94-0.4 0.14-0.68-0.25-0.68-0.94zm-8.47-1.34c-0.47-1.23 0.3-2.09 1.2-1.33 1 0.82 0.97 1.39-0.06 1.79-0.47 0.18-0.97-0.03-1.14-0.46zm10.1-0.83c0-0.3 0.24-0.54 0.54-0.54s0.55 0.24 0.55 0.54-0.25 0.54-0.55 0.54-0.54-0.24-0.54-0.54zm-3.79-1.08c0-0.3 0.36-0.55 0.81-0.55s0.81 0.25 0.81 0.55c0 0.29-0.36 0.54-0.81 0.54s-0.81-0.25-0.81-0.54zm-3.12-1.76c0.34-1.03 2.03-1.18 2.03-0.18 0 0.5-0.46 0.85-1.13 0.85-0.66 0-1.03-0.28-0.9-0.67zm4.52-0.34c-0.24-0.38-0.28-0.83-0.1-1.01 0.48-0.48 1.01 0.23 0.75 1.01-0.18 0.55-0.31 0.55-0.65 0zm-8.08-0.96c-0.71-0.71-0.37-1.28 0.76-1.28 0.63 0 1.03 0.29 0.91 0.65-0.26 0.79-1.17 1.13-1.67 0.63zm-2.27-2.36c-0.18-0.3-0.08-0.54 0.24-0.54s0.57 0.24 0.57 0.54-0.1 0.54-0.23 0.54c-0.14 0-0.39-0.24-0.58-0.54zm-3.52-0.83c0-0.44 0.36-0.8 0.81-0.8s0.81 0.22 0.81 0.49c0 0.26-0.36 0.62-0.81 0.79-0.49 0.19-0.81 0-0.81-0.48zm0.54-3.5c0-0.3 0.37-0.55 0.81-0.55 0.45 0 0.82 0.25 0.82 0.55 0 0.29-0.37 0.54-0.82 0.54-0.44 0-0.81-0.25-0.81-0.54zm-7.05-2.17c0-0.3 0.26-0.54 0.58-0.54 0.31 0 0.42 0.24 0.24 0.54-0.19 0.3-0.45 0.54-0.58 0.54s-0.24-0.24-0.24-0.54zm-15.72-1.63c0-0.29 0.26-0.54 0.58-0.54 0.31 0 0.42 0.25 0.23 0.54-0.18 0.3-0.44 0.55-0.57 0.55s-0.24-0.25-0.24-0.55zm10.3 0c0-0.29 0.25-0.54 0.54-0.54 0.3 0 0.55 0.25 0.55 0.54 0 0.3-0.25 0.55-0.55 0.55-0.29 0-0.54-0.25-0.54-0.55zm-33.32 91.51c0.53-0.85-0.05-1.19-1.34-0.78-0.62 0.19-0.99 0.58-0.82 0.86 0.42 0.68 1.72 0.63 2.16-0.08zm-3.81-2.13c-0.19-0.3-0.8-0.54-1.36-0.54s-1.17 0.24-1.35 0.54c-0.2 0.32 0.36 0.54 1.35 0.54s1.55-0.22 1.36-0.54zm42.95 0.22c-0.18-0.18-0.65-0.2-1.04-0.05-0.43 0.18-0.31 0.3 0.33 0.33 0.57 0.02 0.89-0.1 0.71-0.28zm-48.35-1.11c1.03-0.4-2.39-2.36-4.12-2.36-1.43 0-2.55 1.58-1.56 2.2 0.91 0.58 4.34 0.67 5.68 0.16zm-6.08-2.9c0.84-0.76-4.2-2.74-6.04-2.38-2.7 0.54-3.21 1.63-1.07 2.29 3.57 1.12 5.94 1.14 7.11 0.09zm-38.16 0.03c0.64-0.4 0.66-0.64 0.07-1.34-0.9-1.08-3.49-1.11-4.37-0.05-0.76 0.91-0.45 1.09 3.25 1.83 0.15 0.03 0.62-0.17 1.05-0.44zm-7.01-0.59c0-0.31-0.369-0.7-0.816-0.87-1.086-0.42-2.595 0.2-2.171 0.88 0.444 0.72 2.987 0.71 2.987-0.01zm-6.655-0.31c-0.18-0.18-0.648-0.2-1.039-0.04-0.433 0.17-0.304 0.3 0.327 0.33 0.572 0.02 0.892-0.11 0.712-0.29zm-1.349-3.01c0.345 0.35 1.419 0.63 2.385 0.63 0.967 0 1.915 0.26 2.109 0.57 0.238 0.38 0.564 0.39 1.013 0.02 0.363-0.3 1.378-0.5 2.257-0.44 1.28 0.1 1.63-0.12 1.77-1.1 0.2-1.44 1.07-1.58 1.98-0.32 0.85 1.16 1.91 0.49 1.91-1.2 0-0.85 0.31-1.32 0.86-1.32 0.48 0 1.48-0.49 2.24-1.09 2.25-1.76 4.76-1.25 3.06 0.63-1.06 1.17 0.44 2.2 1.57 1.07 0.34-0.34 1.17-0.61 1.84-0.61s2.12-0.61 3.22-1.36c1.1-0.74 2.27-1.35 2.6-1.36 1.77-0.02 13.18-9.12 17.11-13.63 1.89-2.18 4.02-4.46 4.72-5.07s1.27-1.34 1.27-1.64c0-1.29 2.26-2.4 4.86-2.4 2.22 0 2.92-0.25 4.04-1.47 2.45-2.64-1.38-2.98-3.92-0.35-0.69 0.72-1.49 1.16-1.77 0.98-0.57-0.35 0.85-2.59 2.69-4.26 0.63-0.56 1.15-1.33 1.15-1.7s0.36-0.81 0.82-0.98c0.45-0.18 1.06-0.97 1.37-1.76 0.51-1.35 0.61-1.38 1.52-0.55 1.61 1.46 6.59-0.36 6.59-2.4 0-0.77-4.44 0.03-5.56 1-0.87 0.76-0.95 0.71-0.95-0.55 0-0.75 0.38-1.69 0.85-2.07 1.57-1.31 2.85-4.31 1.83-4.31-0.91 0-3.76 3.39-3.76 4.47 0 0.54-0.37 1.12-0.82 1.29-0.44 0.18-0.81 0.66-0.81 1.08 0 1.37-2.44 5.08-3.34 5.08-1 0-0.34-1.89 1.88-5.32 3.12-4.83 3.36-5.55 2-5.9-1.58-0.41-1.33-1.24 0.38-1.24 1.07 0 1.3-0.16 0.86-0.6-0.53-0.53-2.41-0.49-6.9 0.17-0.58 0.09-1.88 1.26-2.88 2.6-1.01 1.34-3.02 3.77-4.46 5.41-1.45 1.64-3.87 4.61-5.37 6.59-1.51 1.99-4.13 4.91-5.84 6.5s-3.88 3.62-4.83 4.52c-4.86 4.6-6.19 5.68-9.1 7.37-7.03 4.08-8.27 4.62-9.19 4.04-0.67-0.42-1.06-0.32-1.58 0.39-1.38 1.88-12.285 2.67-16.412 1.18-1.193-0.43-2.84-0.78-3.66-0.79-1.126 0-1.49-0.27-1.49-1.09 0-1.12 1.307-1.49 1.897-0.54 0.184 0.3 1.404 0.54 2.71 0.54 1.307 0 2.527 0.25 2.711 0.54 0.184 0.3 1.073 0.55 1.975 0.55 2.089 0 1.815-1.29-0.328-1.54-1.832-0.21-7.957-3.37-10.592-5.45-1.043-0.83-2.446-1.8-3.117-2.15-0.671-0.36-1.22-1.01-1.22-1.45s-1.103-1.34-2.451-1.99c-2.119-1.03-2.496-1.47-2.78-3.25-0.18-1.13-0.541-2.05-0.801-2.05s-0.473-0.61-0.473-1.36c0-1.19 0.178-1.32 1.355-1.03 0.758 0.19 1.356 0.11 1.356-0.19 0-0.29 0.159-1.36 0.353-2.36 0.347-1.79 0.331-1.81-0.72-0.88-1.376 1.21-2.475 1.21-2.241 0 0.106-0.55 0.835-1.06 1.753-1.22 1.196-0.21 1.736-0.73 2.256-2.17 0.97-2.68 0.915-3.25-0.317-3.25-1.049 0-1.589-2.02-0.76-2.85 0.638-0.64 1.844 0.28 1.862 1.42 0.018 1.15 0.03 1.15 1.084-0.12 1.275-1.53 1.356-2.24 0.253-2.24-0.512 0-0.813-0.52-0.813-1.39 0-1.11 0.247-1.38 1.22-1.3 1.232 0.09 3.659-0.5 3.659-0.9 0-0.12-0.29-0.68-0.645-1.25-0.792-1.27 0.407-3.2 1.381-2.23 1.027 1.03 2.674 0.69 2.366-0.49-0.152-0.58 0.056-1.49 0.462-2.03 0.71-0.93 0.739-0.93 0.756 0.01 0.026 1.49 2.408 0.98 2.626-0.55 0.094-0.66 1.062-1.98 2.151-2.93 3.349-2.94 3.094-12.88-0.309-12.05-9.188 2.22-22.611 13.26-27.096 22.29-3.646 7.34-4.009 27.14-0.493 26.85 0.659-0.05 0.912 0.35 0.912 1.47 0 1.22 0.19 1.48 0.9 1.2 0.714-0.27 0.837-0.1 0.593 0.83-0.241 0.93-0.069 1.18 0.794 1.18 0.925 0 1.051 0.25 0.787 1.57-0.256 1.27-0.104 1.62 0.816 1.86 0.703 0.19 1.017 0.59 0.83 1.08-0.372 0.97 0.593 2 1.537 1.63 0.429-0.16 0.773 0.23 0.882 1 0.115 0.8 0.545 1.26 1.202 1.26 0.564 0 1.226 0.55 1.474 1.22 0.247 0.67 0.794 1.21 1.214 1.21s1.072 0.37 1.449 0.83c0.377 0.45 1.104 0.69 1.616 0.53 0.513-0.17 1.253 0.09 1.645 0.56 0.459 0.55 1.169 0.75 1.986 0.54 0.867-0.22 1.375-0.05 1.596 0.53 0.208 0.54 0.693 0.72 1.369 0.51 0.575-0.19 1.397-0.05 1.826 0.31s1.167 0.5 1.64 0.32c1.17-0.45 2.945 0.58 2.967 1.72 0.015 0.75 0.219 0.68 1.106-0.38 0.825-0.99 1.239-1.16 1.717-0.68zm22.194-6.98c0.12-0.34 1.25-0.71 2.53-0.8 1.59-0.12 2.25 0.03 2.1 0.46-0.11 0.35-1.25 0.71-2.52 0.81-1.59 0.11-2.25-0.03-2.11-0.47zm5.41-2.08c-0.54-0.34-0.4-0.54 0.54-0.79 1.89-0.51 3.47-0.43 2.87 0.13-0.86 0.8-2.64 1.14-3.41 0.66zm4.8-2.75c-1.37-0.87 0.05-1.62 2.16-1.14 1.9 0.42 1.9 0.42 0.37 1.04-1.8 0.74-1.54 0.73-2.53 0.1zm-48.014-1.69c-0.558-0.9 0.698-1.94 1.446-1.19 0.625 0.62 0.234 1.78-0.603 1.78-0.263 0-0.642-0.27-0.843-0.59zm51.804-1.59c0-0.53 2.21-1.61 3.28-1.61 1.05 0 0.46 1.51-0.71 1.82-1.78 0.48-2.57 0.41-2.57-0.21zm-56.548-1.96c-0.434-0.43 0.056-1.28 0.74-1.28 0.28 0 0.51 0.37 0.51 0.81 0 0.84-0.64 1.08-1.25 0.47zm60.438-1.14c0.12-0.63 0.78-1.01 1.94-1.12 2.11-0.21 2.34 0.78 0.37 1.54-1.99 0.75-2.51 0.66-2.31-0.42zm-64.067-2.58c0-0.55 0.355-0.82 0.948-0.71 1.143 0.22 1.071 1.19-0.106 1.43-0.492 0.1-0.842-0.2-0.842-0.72zm67.607-0.06c-0.81-0.81-0.33-1.29 1.29-1.29 1.09 0 1.59 0.23 1.44 0.68-0.25 0.76-2.15 1.19-2.73 0.61zm2.87-3.73c0-0.56 0.35-0.82 0.95-0.71 1.14 0.22 1.07 1.18-0.11 1.43-0.49 0.1-0.84-0.2-0.84-0.72zm-72.397-0.31c-0.499-0.8 0.08-1.24 1.118-0.84 0.479 0.18 0.719 0.58 0.533 0.88-0.439 0.71-1.201 0.69-1.651-0.04zm75.407-2.07c-0.13-0.21-0.03-0.71 0.22-1.11 0.47-0.76 2.19-0.43 2.19 0.43 0 0.62-2.08 1.21-2.41 0.68zm-76.198-1.91c0-0.47 0.387-0.85 0.859-0.85 0.957 0 0.79 1.16-0.215 1.5-0.354 0.11-0.644-0.18-0.644-0.65zm78.608-1.67c0-0.44 0.35-0.81 0.78-0.81 1.15 0 1.52 0.92 0.53 1.3-1.21 0.46-1.31 0.42-1.31-0.49zm-79.45-1.94c-0.559-0.9 0.698-1.94 1.446-1.19 0.625 0.62 0.234 1.78-0.604 1.78-0.263 0-0.642-0.27-0.842-0.59zm82.43-1.04c-0.18-0.29-0.08-0.54 0.24-0.54 0.31 0 0.57 0.25 0.57 0.54 0 0.3-0.11 0.55-0.24 0.55s-0.39-0.25-0.57-0.55zm-81.859-2.7c-0.454-0.74 0.159-1.63 1.116-1.63 0.88 0 0.916 0.1 0.453 1.31-0.375 0.97-1.074 1.11-1.569 0.32zm5.512-1.32c-0.164-0.42 0.013-1.03 0.393-1.34 0.871-0.73 2.847 0.57 2.278 1.49-0.543 0.88-2.316 0.78-2.671-0.15zm-4.699-2.75c0-0.56 0.356-0.82 0.949-0.71 1.143 0.22 1.071 1.18-0.107 1.43-0.491 0.1-0.842-0.2-0.842-0.72zm1.085-3.2c0-0.47 0.386-0.86 0.858-0.86s0.762 0.29 0.644 0.64c-0.335 1.01-1.502 1.17-1.502 0.22zm1.626-3.57c0-0.3 0.366-0.54 0.813-0.54s0.813 0.24 0.813 0.54-0.366 0.54-0.813 0.54-0.813-0.24-0.813-0.54zm1.957-2.94c0.385-1 2.034-1.17 1.702-0.17-0.124 0.37-0.631 0.75-1.127 0.85-0.629 0.12-0.803-0.08-0.575-0.68zm1.838-2.2c0-0.56 0.355-0.83 0.948-0.71 1.143 0.22 1.071 1.18-0.107 1.42-0.491 0.1-0.841-0.19-0.841-0.71zm2.71-2.17c0-0.47 0.489-0.81 1.151-0.81 0.961 0 1.039 0.13 0.476 0.81-0.372 0.45-0.889 0.81-1.151 0.81s-0.476-0.36-0.476-0.81zm2.711-2.71c0-0.45 0.482-0.81 1.084-0.81 1.292 0 1.438 0.83 0.227 1.29-1.212 0.47-1.311 0.43-1.311-0.48zm3.004-1.32c-0.4-0.64 0.619-1.29 1.341-0.84 0.607 0.37 0.209 1.35-0.551 1.35-0.263 0-0.618-0.23-0.79-0.51zm3.501-2.47c0-0.47 0.489-0.81 1.151-0.81 0.961 0 1.039 0.13 0.475 0.81-0.371 0.45-0.889 0.81-1.15 0.81-0.262 0-0.476-0.36-0.476-0.81zm2.711-1.59c0-0.5 0.463-0.85 1.129-0.85 1.321 0 1.134 1.27-0.226 1.53-0.535 0.1-0.903-0.17-0.903-0.68zm24.933 63.62c0-0.67-2.45-1.31-3.22-0.84-1.16 0.71-0.52 1.37 1.33 1.37 1.04 0 1.89-0.24 1.89-0.53zm25.71-0.34c2.42-0.93-1.38-3.15-4.44-2.6-5.43 0.98-4.63 2.7 1.32 2.87 1.24 0.03 2.65-0.09 3.12-0.27zm-18.56-1.02c-0.42-1.38-2.71-2.14-4.14-1.37-2.42 1.3-1.75 2.26 1.47 2.07 1.57-0.09 2.77-0.4 2.67-0.7zm-9.86-1.63c0-0.44-0.35-0.81-0.78-0.81-0.9 0-1.52 0.77-1.01 1.28 0.65 0.65 1.79 0.35 1.79-0.47zm14.86 0.11c1.08-0.79 0.68-1.3-1.88-2.38-1.13-0.48-1.64-0.41-2.71 0.4-1.32 1-1.32 1 0.58 1.82 2.35 1.02 2.8 1.04 4.01 0.16zm8.99-0.91c0.8-0.5-0.52-2.11-1.78-2.16-0.98-0.04-3.65 1.69-3.35 2.17 0.41 0.67 4.07 0.66 5.13-0.01zm-4.99-2.22c0.25-1.34-2.4-2.32-3.75-1.37-1.08 0.75-1.08 0.76 0.17 1.64 1.5 1.06 3.35 0.92 3.58-0.27zm2.67-1.45c0.19-0.52 0.61-1.13 0.93-1.35 0.77-0.54-0.64-1.47-2.23-1.48-1.58-0.01-2.19 1.07-1.07 1.89 0.5 0.36 0.9 0.93 0.9 1.27 0 0.97 1.08 0.73 1.47-0.33zm5.04-4.54c0-1.37-2.74-2.24-3.86-1.23-1.11 1.01-1.11 1.01 0.41 2.22 1.49 1.19 3.45 0.63 3.45-0.99zm-38.765 0.62c0.185-0.3-0.181-0.55-0.813-0.55-0.631 0-0.997 0.25-0.813 0.55 0.184 0.29 0.55 0.54 0.813 0.54s0.629-0.25 0.813-0.54zm109.12-0.9c0.68-0.42 1.63-0.7 2.11-0.61 0.48 0.08 0.99-0.15 1.12-0.53 0.44-1.27-5.48 0.38-7.04 1.97-0.9 0.91 2.04 0.27 3.81-0.83zm-67.75-1.92c2.02-2.03-0.73-3.24-3.26-1.44-1.74 1.24-1.74 1.24-0.4 1.61 2.06 0.58 2.95 0.53 3.66-0.17zm-33.55-0.72c3.33-0.34 3.26-0.72-1.36-7.3-0.94-1.34-2.14-3.29-2.67-4.33-0.52-1.04-1.1-2.02-1.285-2.17-0.488-0.4-2.098-3.85-2.523-5.41-0.202-0.75-0.694-2.09-1.093-2.98-0.756-1.7-3.331-10.97-4.032-14.52-0.577-2.91-0.806-2.98-4.171-1.18-13.958 7.46-17.207 25.48-5.859 32.52 3.986 2.47 10.444 5.09 12.571 5.11 0.654 0 1.356 0.28 1.561 0.61 0.247 0.4 1.406 0.48 3.42 0.24 1.681-0.19 4.121-0.46 5.441-0.59zm125.27 0.29c0-0.3-0.1-0.55-0.24-0.55-0.13 0-0.39 0.25-0.57 0.55-0.18 0.29-0.08 0.54 0.24 0.54 0.31 0 0.57-0.25 0.57-0.54zm-17.05-0.58c0.63-1.03-0.29-1.28-1.24-0.34-0.84 0.84-0.84 0.92-0.02 0.92 0.5 0 1.06-0.26 1.26-0.58zm-69.75-3.86c4.2-3.81 5.06-6.06 2.14-5.58-3.28 0.54-4.57 1.71-3.35 3.06 0.86 0.95 0.82 1-0.7 1-2.59 0-4.2 2.83-1.95 3.42 0.52 0.13 1.04 0.27 1.15 0.31 0.12 0.03 1.34-0.96 2.71-2.21zm72.45 1.29c-0.17-0.17-0.6 0-0.97 0.37-0.53 0.54-0.47 0.6 0.3 0.3 0.54-0.2 0.84-0.5 0.67-0.67zm16.78-0.62c1.1-2.13 1.05-2.27-0.53-1.55-1.43 0.65-1.55 0.92-1.03 2.29 0.45 1.17 0.61 1.1 1.56-0.74zm-118.85-1.17c-0.27-2.43-0.52-2.61-3.63-2.57-1.66 0.02-3.12 0.22-3.26 0.44-0.32 0.51 2.86 3.4 3.39 3.09 0.21-0.12 0.88-0.03 1.47 0.21 1.59 0.64 2.19 0.29 2.03-1.17zm4.75-2.89c0-1.09 0.34-1.4 1.88-1.69 3.17-0.59 3.82-3.65 1.08-5.12-0.71-0.38-1.35-1.2-1.44-1.83-0.11-0.72-0.63-1.2-1.44-1.32-0.97-0.14-1.2-0.43-0.98-1.27 0.41-1.56-0.14-2.62-1.64-3.19-1.13-0.43-1.26-0.74-0.97-2.28 0.26-1.39 0.08-2-0.8-2.8s-1.05-1.41-0.79-2.8c0.22-1.19 0.05-2.17-0.54-3-0.48-0.68-0.87-1.78-0.87-2.44s-0.24-1.36-0.54-1.54c-0.68-0.42-0.72-2.44-0.05-2.44 0.27 0 0.06-0.91-0.47-2.03s-1.24-3.61-1.57-5.55-0.78-4.5-0.98-5.69c-0.52-2.94-0.2-10.13 0.49-10.97 0.38-0.47 0.34-1.45-0.13-3.13-0.75-2.68-0.48-3.5 0.8-2.43 0.71 0.59 0.83 0.44 0.83-1.07 0-1.43-0.14-1.64-0.74-1.15-1.23 1.02-2.24-0.61-1.36-2.2 0.73-1.34 1.06-5.24 0.53-6.13-0.18-0.3-0.33-2.15-0.33-4.12s-0.28-3.92-0.61-4.33c-0.33-0.42-0.76-1.44-0.96-2.27-0.65-2.72-5.81-7.938-9.243-9.345-1.209-0.496-2.999-1.243-3.978-1.66-8.01-3.41-30.855 0.664-28.994 5.171 1.664 4.029 4.834 5.294 16.408 6.544 3.131 0.33 6.424 0.94 7.319 1.34 0.894 0.4 2.373 0.88 3.286 1.06 3.013 0.61 6.378 7.4 4.032 8.15-0.596 0.19-1.084 0.57-1.084 0.85s-0.915 0.5-2.033 0.5c-1.99 0-7.191 1.55-7.174 2.14 0.05 1.83 9.158 1.47 10.711-0.43 0.541-0.66 0.806-0.72 1.015-0.22 0.155 0.38 0.81 0.65 1.456 0.62 0.917-0.05 0.967-0.12 0.226-0.31-1.501-0.4-1.231-3.11 0.417-4.19 1.666-1.09 2.376-0.08 1.336 1.87-0.912 1.7 0.59 3.26 2.18 2.27 1.39-0.87 1.66-0.84 1.28 0.15-0.22 0.56 0.04 0.81 0.83 0.81 0.65 0 1.14-0.35 1.14-0.81 0-0.45 0.24-0.81 0.54-0.81 2.55 0-0.28 2.57-3.73 3.39-3.02 0.71-3.04 0.75-2.17 3.91 0.35 1.26 0.64 7.78 0.7 15.71 0.09 12.99 0.15 13.77 1.59 18.97 0.83 2.98 1.72 6.25 1.98 7.26 0.89 3.49 4.53 11.7 5.79 13.08 0.69 0.76 1.26 1.64 1.26 1.95 0 0.64 5.45 6.15 6.09 6.15 0.23 0 0.42-0.6 0.42-1.33zm1.9-4.09c-0.19-0.3-0.08-0.54 0.24-0.54 0.31 0 0.57 0.24 0.57 0.54s-0.11 0.54-0.24 0.54-0.39-0.24-0.57-0.54zm-4.88-1.63c-0.46-0.73 0.16-1.62 1.11-1.62 0.43 0 0.78 0.49 0.78 1.08 0 1.12-1.3 1.5-1.89 0.54zm-2.62-4.15c-0.69-0.69-0.36-1.26 0.72-1.26 0.6 0 1.08 0.36 1.08 0.81 0 0.82-1.14 1.11-1.8 0.45zm-3.08-10.74c0-0.91 0.1-0.95 1.31-0.49 1 0.38 0.62 1.3-0.52 1.3-0.43 0-0.79-0.37-0.79-0.81zm-1.79-3.87c-0.75-0.75-0.36-1.9 0.58-1.72 0.52 0.1 0.94 0.53 0.94 0.95 0 0.85-0.95 1.33-1.52 0.77zm-1.35-5.17c-0.76-0.76-0.86-2.41-0.18-2.83 0.26-0.16 0.91 0.19 1.45 0.79 1.21 1.34-0.01 3.29-1.27 2.04zm-1.73-13.44c0-0.3 0.36-0.54 0.81-0.54s0.81 0.24 0.81 0.54-0.36 0.54-0.81 0.54-0.81-0.24-0.81-0.54zm-0.28-4.88c-0.18-0.3-0.07-0.54 0.24-0.54 0.32 0 0.58 0.24 0.58 0.54s-0.11 0.54-0.24 0.54-0.39-0.24-0.58-0.54zm-0.54-3.25c-0.21-0.35-0.15-0.88 0.15-1.18 0.36-0.36 0.67-0.33 0.94 0.1 0.21 0.35 0.15 0.88-0.15 1.18-0.36 0.36-0.67 0.33-0.94-0.1zm0.27-5.41c0-1.24 1.36-1.48 1.81-0.33 0.34 0.89-0.06 1.41-1.08 1.41-0.4 0-0.73-0.49-0.73-1.08zm-2.16-5.12c0-0.43 0.19-0.9 0.43-1.05 0.69-0.42 1.91 0.57 1.5 1.23-0.54 0.87-1.93 0.74-1.93-0.18zm2.71-1.11c0-0.45 0.36-0.82 0.81-0.82s0.81 0.37 0.81 0.82c0 0.44-0.36 0.81-0.81 0.81s-0.81-0.37-0.81-0.81zm-2.71-9.18c0-0.43 0.19-0.9 0.43-1.05 0.69-0.43 1.91 0.57 1.5 1.23-0.54 0.87-1.93 0.74-1.93-0.18zm-4.223-4.18c0.281-0.84 1.494-0.99 1.537-0.19 0.015 0.3-0.379 0.63-0.876 0.73-0.565 0.12-0.813-0.08-0.661-0.54zm6.653 0.08c-0.18-0.29 0.06-0.54 0.55-0.54 0.48 0 0.72 0.25 0.54 0.54-0.19 0.3-0.43 0.55-0.54 0.55-0.12 0-0.36-0.25-0.55-0.55zm-8.578-4.69c-0.685-0.68-0.358-1.14 1.006-1.4 1.72-0.33 2.265 0.44 0.851 1.19-1.251 0.67-1.381 0.69-1.857 0.21zm5.598-2.35c0-0.3 0.23-0.539 0.51-0.539s0.66 0.239 0.85 0.539c0.18 0.3-0.05 0.54-0.51 0.54-0.47 0-0.85-0.24-0.85-0.54zm-4.333-1.893c0-0.467 0.489-0.813 1.15-0.813 0.961 0 1.04 0.134 0.476 0.813-0.371 0.446-0.889 0.812-1.151 0.812-0.261 0-0.475-0.366-0.475-0.812zm-19.236-0.753c0.444-1.169-0.976-3.852-2.039-3.852-0.523 0-0.952-0.385-0.952-0.856 0-0.726 0.8-0.845 5.286-0.784 2.907 0.039 6.383-0.055 7.725-0.208 2.487-0.286 4.68 0.061 4.093 0.647-0.178 0.178-1.111 0.339-2.073 0.356-1.371 0.026-1.786 0.287-1.917 1.212-0.215 1.509-1.73 2.906-1.73 1.595 0-1.108-0.469-1.112-1.682-0.015-0.534 0.482-0.811 1.238-0.629 1.712 0.252 0.657 0.06 0.779-0.85 0.542-0.646-0.169-1.175-0.111-1.175 0.129 0 0.241-0.977 0.401-2.171 0.356-1.608-0.06-2.097-0.277-1.886-0.834zm3.682-2.463c0.655-0.495 0.781-0.867 0.381-1.114-0.872-0.539-2.175 0.098-2.175 1.062 0 1.014 0.505 1.029 1.794 0.052zm30.357 87.679c0.65-0.25 0.59-0.52-0.36-1.48-0.64-0.66-1.53-1.71-1.98-2.35-1.13-1.61-7.05-2.35-7.03-0.87 0.04 2.93 6.08 5.97 9.37 4.7zm37.25-3.49c0.92-0.8 1.1-1.26 0.67-1.7-1.1-1.09-5.02 0.7-5.02 2.29 0 0.93 3.08 0.51 4.35-0.59zm-41.21-3.45c0-2-1.74-3.21-4.84-3.36-4.018-0.2-4.379 1.79-0.58 3.18 0.93 0.35 5.42 0.49 5.42 0.18zm20.93-1.55c0.9-0.97 2.33-2.74 3.19-3.93s2.92-3.75 4.59-5.69c7.02-8.14 9.23-11.24 8.49-11.86-1.19-0.98-9.71-4.05-13.62-4.9-1.19-0.26-3.88-0.86-5.96-1.34-13.8-3.13-15.23 1.23-6.26 19.12 0.24 0.48 0.76 1.61 1.15 2.5 0.39 0.9 1.32 2.46 2.06 3.48s1.4 2.36 1.47 2.98 0.15 1.19 0.18 1.26c0.29 0.89 3.37-0.17 4.71-1.62zm27.77-4.05c0.79-0.59 1.52-1.48 1.62-1.98 0.24-1.23-4.07-0.63-5.54 0.77-2.45 2.33 0.99 3.39 3.92 1.21zm-51.41 0.09c0-2.69-1.56-4.03-4.68-4.03-3.029 0-3.029 0-2.655 1.49 0.206 0.82 0.415 1.49 0.465 1.49 0.051 0 0.824 0.42 1.72 0.93 2.1 1.21 5.15 1.28 5.15 0.12zm-2.6-7.27c-0.23-2.83-6.618-4.76-6.618-2.01 0 1.4 1.507 3.08 2.763 3.08 0.532 0 1.125 0.26 1.325 0.57 0.89 1.45 2.69 0.28 2.53-1.64zm96.92 0.26c0.83-0.99 1.99-1.06 2.33-0.14 0.15 0.38 0.52 0.03 0.85-0.81 0.76-1.9 2.41-2.07 1.94-0.19-0.33 1.33 0.51 2.4 1.11 1.42 0.19-0.3 0.94-0.55 1.67-0.55 1.46 0 1.67-0.5 0.64-1.59-0.56-0.59-0.4-0.65 0.9-0.35 1.04 0.25 1.72 0.14 2-0.32 0.24-0.38 0.62-0.5 0.85-0.27s0.07 0.64-0.36 0.9c-1.63 1.01 0.06 1.17 2.89 0.28 2.42-0.76 2.9-1.11 2.68-1.96-0.15-0.56 0-1.03 0.32-1.03 1.28 0 0.4-3.51-0.93-3.69-0.86-0.13-1.15-0.44-0.93-1.02 0.27-0.68 0.01-0.76-1.45-0.44-3.34 0.74-16.61 0.93-19.54 0.28-1.55-0.35-4.05-0.74-5.54-0.88s-3.41-0.49-4.28-0.77c-0.86-0.29-2.15-0.52-2.87-0.52-1.6 0-12.51-3.64-13.97-4.67-0.59-0.41-1.59-0.74-2.22-0.74s-3.8-1.12-7.06-2.47c-3.25-1.36-6.89-2.87-8.09-3.36-1.19-0.49-4.24-1.91-6.77-3.14-10.88-5.32-27.17-7.65-29.49-4.23-2.26 3.31-1.82 7.53 0.64 6.22 0.76-0.41 1.14-0.29 1.64 0.51 0.9 1.44 0.83 1.59-0.68 1.59-1.83 0-2.09 0.71-0.53 1.45 1.08 0.51 1.41 0.46 1.85-0.28 0.37-0.63 0.65-0.72 0.94-0.28 0.53 0.79 2.3 1.03 3.54 0.49 0.58-0.25 1.31-0.12 1.85 0.32 0.7 0.58 0.95 0.59 1.13 0.06 0.37-1.09 1.76-0.77 1.76 0.41 0 0.59 0.24 1.08 0.54 1.08s0.54-0.25 0.54-0.56c0-1.08 1.68-1.2 2.45-0.18 0.45 0.58 0.78 0.73 0.79 0.33 0.02-0.97 1.62-0.83 2.01 0.18 0.19 0.51 0.73 0.75 1.3 0.6 0.55-0.14 1.4 0.21 1.94 0.81 0.54 0.59 1.39 0.94 1.94 0.8 0.54-0.14 1.33 0.1 1.77 0.53 0.59 0.59 1.05 0.65 1.84 0.23 0.87-0.47 1.24-0.31 2.1 0.87 0.77 1.06 1.5 1.42 2.76 1.39 1.31-0.04 1.7 0.18 1.7 0.95 0 1.25 1.03 1.66 2.4 0.95 0.79-0.4 1.2-0.32 1.69 0.35 0.35 0.48 1.1 0.88 1.67 0.89 0.56 0.01 1.49 0.38 2.07 0.82 0.58 0.43 1.6 0.79 2.28 0.79 0.67 0 1.38 0.27 1.58 0.59s0.8 0.47 1.34 0.33c0.64-0.16 1.07 0.11 1.25 0.79 0.21 0.82 0.57 0.97 1.67 0.69 1.02-0.25 1.48-0.11 1.74 0.56 0.25 0.64 0.73 0.82 1.61 0.6 0.92-0.23 1.42-0.02 1.86 0.8 0.41 0.76 1.06 1.08 2.05 1.01 3.46-0.27 4.86 0.04 5.14 1.14 0.25 0.94 0.49 1.01 1.77 0.52 1.14-0.43 1.68-0.38 2.36 0.24 0.58 0.52 1.16 0.63 1.67 0.32 0.48-0.3 1.05-0.26 1.48 0.09 0.38 0.32 1.39 0.44 2.24 0.27s1.8-0.05 2.11 0.26c0.39 0.39 0.94 0.36 1.78-0.09 0.66-0.36 1.36-0.44 1.55-0.18 0.18 0.26 1.5 0.45 2.92 0.42 1.54-0.03 2.83 0.24 3.18 0.67 0.78 0.93 1.26 0.91 2.09-0.09zm-5.96-2.22c0-0.47 0.47-0.98 1.04-1.13 0.56-0.15 1.15-0.74 1.3-1.31 0.15-0.56 0.55-1.03 0.9-1.03 0.92 0 0.14 2.25-1.18 3.39-1.36 1.18-2.06 1.2-2.06 0.08zm5.12 0.28c-0.56-0.91 0.7-1.94 1.45-1.2 0.62 0.63 0.23 1.78-0.61 1.78-0.26 0-0.64-0.26-0.84-0.58zm-15.55-0.87c-0.98-0.26-1.22-0.81-0.61-1.42 0.44-0.44 2.37 0.59 2.37 1.27 0 0.54-0.19 0.56-1.76 0.15zm5.01-0.17c0-0.3 0.49-0.54 1.08-0.54 0.6 0 1.09 0.24 1.09 0.54s-0.49 0.54-1.09 0.54c-0.59 0-1.08-0.24-1.08-0.54zm26.34 0.07c-0.24-0.38-0.28-0.83-0.1-1.01 0.48-0.48 1.01 0.23 0.75 1.01-0.18 0.56-0.31 0.55-0.65 0zm-14.05-0.97c-1.2-1.2-0.27-1.86 2.1-1.51 1.35 0.21 3.48 0.11 4.74-0.2 3.78-0.96 6.98-1.17 6.74-0.46-0.11 0.35-1.16 0.77-2.33 0.93-1.17 0.17-2.66 0.59-3.31 0.95-1.25 0.68-7.33 0.9-7.94 0.29zm-9.28-1.23c-0.41-0.65 0.61-1.29 1.34-0.84 0.6 0.37 0.2 1.34-0.55 1.34-0.27 0-0.62-0.22-0.79-0.5zm-4.86-0.51c-0.24-0.37-0.28-0.83-0.1-1.01 0.48-0.48 1.01 0.23 0.75 1.02-0.18 0.55-0.31 0.55-0.65-0.01zm-5.93-0.99c-0.62-0.61-0.38-1.25 0.46-1.25 0.45 0 0.82 0.23 0.82 0.51 0 0.69-0.85 1.18-1.28 0.74zm-16.07-5.61c0-0.32 0.24-0.42 0.54-0.24s0.54 0.44 0.54 0.57c0 0.14-0.24 0.24-0.54 0.24s-0.54-0.26-0.54-0.57zm-4.07-1.05c-0.18-0.3 0.05-0.54 0.51-0.54 0.47 0 0.85 0.24 0.85 0.54s-0.23 0.54-0.51 0.54-0.66-0.24-0.85-0.54zm-3.93-1.76c0.13-0.38 0.55-0.68 0.95-0.68s0.82 0.3 0.95 0.68c0.13 0.4-0.25 0.67-0.95 0.67s-1.08-0.27-0.95-0.67zm-4.23-1c-0.53-0.85 0.5-1.67 1.58-1.26 0.71 0.27 0.78 0.52 0.3 1.1-0.75 0.9-1.39 0.96-1.88 0.16zm-3.9-1.71c0.12-0.37 0.55-0.68 0.95-0.68s0.82 0.31 0.95 0.68c0.13 0.4-0.25 0.68-0.95 0.68s-1.08-0.28-0.95-0.68zm-3.39-2.03c0-0.3 0.26-0.54 0.58-0.54 0.31 0 0.42 0.24 0.24 0.54-0.19 0.3-0.45 0.54-0.58 0.54s-0.24-0.24-0.24-0.54zm-3.79-1.36c0-0.44 0.36-0.81 0.81-0.81s0.81 0.37 0.81 0.81c0 0.45-0.36 0.82-0.81 0.82s-0.81-0.37-0.81-0.82zm-3.26-1.03c0-0.48 0.39-0.86 0.86-0.86s0.76 0.29 0.65 0.64c-0.34 1.01-1.51 1.17-1.51 0.22zm-4.2-1c0.34-1.02 2.04-1.17 2.04-0.17 0 0.5-0.47 0.85-1.13 0.85-0.67 0-1.04-0.28-0.91-0.68zm-3.38-1.22c0-0.44 0.36-0.81 0.81-0.81s0.81 0.37 0.81 0.81c0 0.45-0.36 0.82-0.81 0.82s-0.81-0.37-0.81-0.82zm-3.26-0.81c0-1.04 1.06-1.47 1.8-0.73 0.42 0.41-0.61 1.81-1.32 1.81-0.26 0-0.48-0.48-0.48-1.08zm-7.78-0.38c-0.65-0.64-0.35-1.79 0.46-1.79 0.45 0 0.82 0.36 0.82 0.78 0 0.91-0.78 1.52-1.28 1.01zm3.58-0.3c0.34-1.02 2.03-1.17 2.03-0.17 0 0.5-0.46 0.85-1.13 0.85-0.66 0-1.03-0.28-0.9-0.68zm-7.89-0.21c-0.43-0.43 0.06-1.28 0.74-1.28 0.28 0 0.51 0.37 0.51 0.82 0 0.83-0.64 1.07-1.25 0.46zm47.01 24.51c2.88-1.2 2.78-1.83-0.32-2.04-2.87-0.19-4.24 0.46-4.24 2.02 0 1 2.19 1.01 4.56 0.02zm-60.96-5.88c-0.66-1.82-0.77-1.88-3.583-1.88-3.336 0-3.987 1.36-1.681 3.5 2.861 2.66 6.414 1.57 5.264-1.62zm48.27-1.2c0-0.49-0.32-0.67-0.81-0.48-0.45 0.17-0.82 0.52-0.82 0.79s0.37 0.48 0.82 0.48c0.44 0 0.81-0.35 0.81-0.79zm-49.25-3.81c-0.22-1.82-0.868-2.42-2.658-2.43-0.671 0-1.22-0.25-1.22-0.55s0.602-0.54 1.337-0.54c1.594 0 2.421-1.38 1.942-3.25-0.316-1.24-0.603-1.36-3.296-1.36-3.534 0-4.019 0.89-1.882 3.43 1.406 1.66 1.406 1.66 0.006 2.58-1.726 1.13-1.559 1.74 0.838 3.04 2.893 1.56 5.173 1.14 4.933-0.92zm114.5 0.31c3.24-0.77 3.33-1.21 0.86-4.34-3.51-4.44-6.26-6.75-11.71-9.82-2.06-1.17-10.16-2.02-10.71-1.12-0.2 0.32-1.27 0.83-2.38 1.14-3.28 0.9-11.54 7.89-12.35 10.45-0.47 1.46 0.1 1.71 5.59 2.47 2.62 0.36 7.07 1 9.9 1.42 5.47 0.82 17.01 0.71 20.8-0.2zm25.82-2.75c0-0.3-0.23-0.54-0.51-0.54s-0.66 0.24-0.84 0.54c-0.19 0.3 0.04 0.54 0.51 0.54 0.46 0 0.84-0.24 0.84-0.54zm-61.8-5.81c0-0.4 0.43-0.87 0.95-1.06 1.11-0.39 3.39-2.35 3.39-2.91 0-1.39-8.83 0.17-9.82 1.74-0.93 1.46-0.5 2.08 1.45 2.08 1.15 0 1.79 0.22 1.59 0.55-0.18 0.29-1.51 0.54-2.94 0.54-4.63 0-5.18 2.15-0.69 2.71 2.65 0.34 6.07-1.72 6.07-3.65zm61.5 3.13c0.53-0.57 1.47-1.12 2.09-1.21 8.82-1.29 4.91-32.35-4.7-37.36-5.65-2.95-18.4 1.17-14.8 4.78 0.23 0.22 0.55-0.13 0.72-0.77 1.18-4.51 9.92-4.04 14.47 0.77 4.79 5.08 4.53 19.02-0.51 26.85-2.66 4.12-1.39 7.13 1.42 3.37 1-1.33 1.99-2.41 2.19-2.41 0.21 0 0.52-0.67 0.69-1.49s0.59-2.83 0.92-4.47c1.52-7.35 3.06-10.04 2.57-4.47-0.61 6.87-3.34 13.32-6.41 15.13-0.88 0.52-1.6 1.26-1.6 1.64 0 1.06 1.88 0.83 2.95-0.36zm3.83-21.15c-0.19-0.3 0.06-0.54 0.54-0.54s0.72 0.24 0.54 0.54-0.43 0.54-0.54 0.54c-0.12 0-0.36-0.24-0.54-0.54zm-144.61 15.17c0.235-2.27-3.629-4.07-5.821-2.72-0.937 0.58-0.183 3.67 0.973 3.99 2.486 0.69 4.705 0.1 4.848-1.27zm87.356-3.46c0.5-0.6 0.33-0.8-0.84-1.03-1.43-0.27-3.44 0.53-3.44 1.37 0 0.72 3.64 0.44 4.28-0.34zm-76.37-3.54c-0.72-1.29-1.33 0.6-0.81 2.53 0.4 1.49 0.4 1.49 0.84-0.09 0.25-0.88 0.24-1.96-0.03-2.44zm-10.54 0.19c0.44-2.37 0.45-2.36-2.774-2.53-2.874-0.16-3.407 0.45-2.74 3.1 0.762 3.04 4.916 2.61 5.514-0.57zm90.17-0.43c-0.61-0.53-4.88-0.87-4.57-0.36 0.19 0.3 1.35 0.55 2.57 0.55 1.23 0 2.13-0.08 2-0.19zm-90.35-4.1c0.22-0.02 0.41-1.14 0.41-2.48 0-3.49-3.494-3.85-3.943-0.4-0.287 2.2 0.579 3.41 2.21 3.1 0.504-0.1 1.1-0.2 1.323-0.22zm10.52-1.26c-0.15-0.37-0.27-0.07-0.27 0.68 0 0.74 0.12 1.05 0.27 0.68 0.15-0.38 0.15-0.99 0-1.36zm-10.655-6.2c0-0.67-1.804-2.33-2.534-2.33-0.681 0-0.559 2.03 0.202 3.39 0.25 0.44 2.332-0.51 2.332-1.06zm-17.483-2.58c2.168-0.67 2.846-1.13 2.846-1.94 0-1.26-0.702-1.36-1.794-0.27-0.433 0.43-0.922 0.65-1.087 0.48-0.165-0.16-0.621-0.09-1.013 0.15-0.758 0.48-2.375 0.7-6.541 0.9-2.394 0.11-3.146 0.7-2.169 1.71 0.591 0.61 6.45-0.01 9.758-1.03zm3.92-5.66c4.697-1.65 4.947-3.41 0.699-4.92-1.423-0.5-3.75-1.33-5.172-1.84-3.831-1.37-4.507-0.56-2.564 3.06 0.596 1.11 1.084 2.38 1.084 2.81 0 1.94 2.094 2.25 5.953 0.89zm7.157-6.67c-0.389-0.39-0.641-0.42-0.641-0.08 0 0.73 0.641 1.37 1.002 1 0.155-0.15-0.008-0.56-0.361-0.92zm-17.052-3.54c-0.216-0.9-0.247-0.9-0.64 0-0.227 0.53-0.227 1.38 0 1.9 0.52 1.19 1.023-0.3 0.64-1.9z"/>
    </g>
  </g>
  <metadata>
    <rdf:RDF>
      <cc:Work>
        <dc:format>image/svg+xml</dc:format>
        <dc:type rdf:resource="http://purl.org/dc/dcmitype/StillImage"/>
        <cc:license rdf:resource="http://creativecommons.org/licenses/publicdomain/"/>
        <dc:publisher>
          <cc:Agent rdf:about="http://openclipart.org/">
            <dc:title>Openclipart</dc:title>
          </cc:Agent>
        </dc:publisher>
        <dc:title>serpent nowed</dc:title>
        <dc:date>2008-07-22T19:38:36</dc:date>
        <dc:description>A Complete Guide to Heraldry by Arthur Charles Fox-Davies 1909</dc:description>
        <dc:source>http://openclipart.org/detail/18013/serpent-nowed-by-szquirrel</dc:source>
        <dc:creator>
          <cc:Agent>
            <dc:title>szquirrel</dc:title>
          </cc:Agent>
        </dc:creator>
        <dc:subject>
          <rdf:Bag>
            <rdf:li>animal</rdf:li>
            <rdf:li>clip art</rdf:li>
            <rdf:li>clipart</rdf:li>
            <rdf:li>externalsource</rdf:li>
            <rdf:li>heraldry</rdf:li>
            <rdf:li>image</rdf:li>
            <rdf:li>media</rdf:li>
            <rdf:li>public domain</rdf:li>
            <rdf:li>snake</rdf:li>
            <rdf:li>svg</rdf:li>
          </rdf:Bag>
        </dc:subject>
      </cc:Work>
      <cc:License rdf:about="http://creativecommons.org/licenses/publicdomain/">
        <cc:permits rdf:resource="http://creativecommons.org/ns#Reproduction"/>
        <cc:permits rdf:resource="http://creativecommons.org/ns#Distribution"/>
        <cc:permits rdf:resource="http://creativecommons.org/ns#DerivativeWorks"/>
      </cc:License>
    </rdf:RDF>
  </metadata>
</svg>
